<svg width="128" height="128" viewBox="0 0 128 128" fill="none" xmlns="http://www.w3.org/2000/svg">
<path d="M115.2 0H12.8C5.73076 0 0 5.73076 0 12.8V115.2C0 122.269 5.73076 128 12.8 128H115.2C122.269 128 128 122.269 128 115.2V12.8C128 5.73076 122.269 0 115.2 0Z" fill="url(#paint0_linear_4_18)"/>
<path d="M115.2 0H12.8C5.73076 0 0 5.73076 0 12.8V115.2C0 122.269 5.73076 128 12.8 128H115.2C122.269 128 128 122.269 128 115.2V12.8C128 5.73076 122.269 0 115.2 0Z" fill="url(#paint1_linear_4_18)"/>
<path d="M12.7998 1.5H115.2C121.441 1.50011 126.5 6.55914 126.5 12.7998V115.2C126.5 121.441 121.441 126.5 115.2 126.5H12.7998C6.55914 126.5 1.50011 121.441 1.5 115.2V12.7998C1.50011 6.55914 6.55914 1.50011 12.7998 1.5Z" stroke="url(#paint2_radial_4_18)" stroke-opacity="0.33" stroke-width="3"/>
<path d="M111.3 70H73.7C71.1043 70 69 72.1043 69 74.7V112.3C69 114.896 71.1043 117 73.7 117H111.3C113.896 117 116 114.896 116 112.3V74.7C116 72.1043 113.896 70 111.3 70Z" fill="url(#paint3_linear_4_18)"/>
<path d="M53.3 70H15.7C13.1043 70 11 72.1043 11 74.7V112.3C11 114.896 13.1043 117 15.7 117H53.3C55.8956 117 58 114.896 58 112.3V74.7C58 72.1043 55.8956 70 53.3 70Z" fill="url(#paint4_linear_4_18)"/>
<path d="M111.3 10H73.7C71.1043 10 69 12.1043 69 14.7V52.3C69 54.8956 71.1043 57 73.7 57H111.3C113.896 57 116 54.8956 116 52.3V14.7C116 12.1043 113.896 10 111.3 10Z" fill="url(#paint5_linear_4_18)"/>
<path d="M53.3 10H15.7C13.1043 10 11 12.1043 11 14.7V52.3C11 54.8956 13.1043 57 15.7 57H53.3C55.8956 57 58 54.8956 58 52.3V14.7C58 12.1043 55.8956 10 53.3 10Z" fill="url(#paint6_linear_4_18)"/>
<path d="M99.8068 93.5227V97.3636H89.1932V93.5227H99.8068Z" fill="#1E1E1E"/>
<path d="M32.8409 103.739V87.6477H36.9091V103.739H32.8409ZM26.8295 97.7273V93.6591H42.9205V97.7273H26.8295Z" fill="#1E1E1E"/>
<path d="M99.2754 29.0979C99.4981 29.3206 99.6231 29.6226 99.6231 29.9375C99.6231 30.2524 99.4981 30.5544 99.2754 30.7771L96.5525 33.5L99.2754 36.2229C99.4918 36.4469 99.6115 36.7469 99.6087 37.0582C99.606 37.3696 99.4811 37.6674 99.261 37.8876C99.0408 38.1078 98.743 38.2327 98.4316 38.2354C98.1202 38.2381 97.8203 38.1184 97.5963 37.9021L94.8734 35.1791L92.1504 37.9021C91.9265 38.1184 91.6265 38.2381 91.3152 38.2354C91.0038 38.2327 90.706 38.1078 90.4858 37.8876C90.2656 37.6674 90.1407 37.3696 90.138 37.0582C90.1353 36.7469 90.255 36.4469 90.4713 36.2229L93.1943 33.5L90.4713 30.7771C90.3579 30.6675 90.2674 30.5365 90.2052 30.3916C90.143 30.2467 90.1102 30.0909 90.1088 29.9332C90.1075 29.7756 90.1375 29.6192 90.1972 29.4732C90.2569 29.3273 90.3451 29.1947 90.4566 29.0832C90.5681 28.9717 90.7007 28.8835 90.8466 28.8238C90.9926 28.7641 91.1489 28.7341 91.3066 28.7355C91.4643 28.7368 91.6201 28.7696 91.765 28.8318C91.9099 28.8941 92.0409 28.9845 92.1504 29.0979L94.8734 31.8209L97.5963 29.0979C97.819 28.8753 98.121 28.7503 98.4359 28.7503C98.7508 28.7503 99.0528 28.8753 99.2754 29.0979Z" fill="white"/>
<path fill-rule="evenodd" clip-rule="evenodd" d="M104.373 25.1875C104.373 24.8726 104.248 24.5705 104.026 24.3478C103.803 24.1251 103.501 24 103.186 24H89.4821C89.1395 23.9999 88.8008 24.0739 88.4895 24.2169C88.1781 24.36 87.9014 24.5688 87.6783 24.8289L81.5722 31.9539C81.203 32.3844 81 32.9328 81 33.5C81 34.0672 81.203 34.6156 81.5722 35.0461L87.6783 42.1711C87.9014 42.4312 88.1781 42.64 88.4895 42.7831C88.8008 42.9261 89.1395 43.0001 89.4821 43H103.186C103.501 43 103.803 42.8749 104.026 42.6522C104.248 42.4295 104.373 42.1274 104.373 41.8125V25.1875ZM101.998 40.625H89.4821L83.3748 33.5L89.4821 26.375H101.998V40.625Z" fill="white"/>
<path d="M48.3754 30.5469H45.2646C45.2077 30.1444 45.0917 29.7869 44.9165 29.4744C44.7414 29.1572 44.5165 28.8873 44.2418 28.6648C43.9672 28.4422 43.65 28.2718 43.2901 28.1534C42.935 28.035 42.5491 27.9759 42.1325 27.9759C41.3796 27.9759 40.7238 28.1629 40.1651 28.5369C39.6064 28.9062 39.1732 29.446 38.8654 30.1562C38.5576 30.8617 38.4038 31.7187 38.4038 32.7273C38.4038 33.7642 38.5576 34.6354 38.8654 35.3409C39.1779 36.0464 39.6135 36.5791 40.1722 36.9389C40.7309 37.2988 41.3772 37.4787 42.1111 37.4787C42.5231 37.4787 42.9042 37.4242 43.2546 37.3153C43.6097 37.2064 43.9246 37.0478 44.1992 36.8395C44.4738 36.6264 44.7011 36.3684 44.881 36.0653C45.0657 35.7623 45.1935 35.4167 45.2646 35.0284L48.3754 35.0426C48.2949 35.7102 48.0936 36.3542 47.7717 36.9744C47.4544 37.59 47.0259 38.1416 46.4861 38.6293C45.9511 39.1122 45.3119 39.4957 44.5685 39.7798C43.8299 40.0592 42.9942 40.1989 42.0614 40.1989C40.7641 40.1989 39.604 39.9053 38.5813 39.3182C37.5633 38.7311 36.7584 37.8812 36.1665 36.7685C35.5794 35.6558 35.2859 34.3087 35.2859 32.7273C35.2859 31.1411 35.5842 29.7917 36.1808 28.679C36.7773 27.5663 37.587 26.7187 38.6097 26.1364C39.6325 25.5492 40.783 25.2557 42.0614 25.2557C42.9042 25.2557 43.6855 25.3741 44.4052 25.6108C45.1296 25.8475 45.7712 26.1932 46.3299 26.6477C46.8886 27.0975 47.3432 27.6491 47.6935 28.3026C48.0486 28.956 48.2759 29.7041 48.3754 30.5469Z" fill="white"/>
<path d="M23.7713 40H20.4759L25.4972 25.4545H29.4602L34.4744 40H31.179L27.5355 28.7784H27.4219L23.7713 40ZM23.5653 34.2827H31.3494V36.6832H23.5653V34.2827Z" fill="white"/>
<defs>
<linearGradient id="paint0_linear_4_18" x1="64" y1="0" x2="64" y2="128" gradientUnits="userSpaceOnUse">
<stop stop-color="#F0F0F0"/>
<stop offset="1" stop-color="#B2B2B2"/>
</linearGradient>
<linearGradient id="paint1_linear_4_18" x1="64" y1="0" x2="64" y2="128" gradientUnits="userSpaceOnUse">
<stop stop-color="#474747"/>
<stop offset="1" stop-color="#212121"/>
</linearGradient>
<radialGradient id="paint2_radial_4_18" cx="0" cy="0" r="1" gradientUnits="userSpaceOnUse" gradientTransform="translate(21 21) rotate(47.5138) scale(145.097)">
<stop stop-color="#DFDFDF"/>
<stop offset="0.552885" stop-color="#535353"/>
</radialGradient>
<linearGradient id="paint3_linear_4_18" x1="92.5" y1="70" x2="92.5" y2="117" gradientUnits="userSpaceOnUse">
<stop stop-color="white"/>
<stop offset="1" stop-color="#D5D5D5"/>
</linearGradient>
<linearGradient id="paint4_linear_4_18" x1="34.5" y1="70" x2="34.5" y2="117" gradientUnits="userSpaceOnUse">
<stop stop-color="white"/>
<stop offset="1" stop-color="#D5D5D5"/>
</linearGradient>
<linearGradient id="paint5_linear_4_18" x1="92.5" y1="10" x2="92.5" y2="57" gradientUnits="userSpaceOnUse">
<stop stop-color="#7C8FA5"/>
<stop offset="1" stop-color="#6B7F95"/>
</linearGradient>
<linearGradient id="paint6_linear_4_18" x1="34.5" y1="10" x2="34.5" y2="57" gradientUnits="userSpaceOnUse">
<stop stop-color="#D86A35"/>
<stop offset="1" stop-color="#C75724"/>
</linearGradient>
</defs>
</svg>
